<mxfile host="app.diagrams.net" agent="Mozilla/5.0 (X11; Ubuntu; Linux x86_64; rv:132.0) Gecko/20100101 Firefox/132.0" version="24.8.6">
  <diagram name="Page-1" id="cjGIFgiRGskM68WvKYOd">
    <mxGraphModel dx="2284" dy="822" grid="1" gridSize="10" guides="1" tooltips="1" connect="1" arrows="1" fold="1" page="1" pageScale="1" pageWidth="850" pageHeight="1100" math="0" shadow="0">
      <root>
        <mxCell id="0" />
        <mxCell id="1" parent="0" />
        <mxCell id="tuVfp5GaI5sKtkc8t0Ae-1" value="" style="ellipse;whiteSpace=wrap;html=1;aspect=fixed;" vertex="1" parent="1">
          <mxGeometry x="112.5" y="90" width="80" height="80" as="geometry" />
        </mxCell>
        <mxCell id="tuVfp5GaI5sKtkc8t0Ae-2" value="&lt;div&gt;BIH&lt;/div&gt;&lt;div&gt;10.50.23.151&lt;/div&gt;" style="text;html=1;align=center;verticalAlign=middle;whiteSpace=wrap;rounded=0;" vertex="1" parent="1">
          <mxGeometry x="90" y="60" width="125" height="30" as="geometry" />
        </mxCell>
        <mxCell id="tuVfp5GaI5sKtkc8t0Ae-3" value="22,80" style="ellipse;whiteSpace=wrap;html=1;aspect=fixed;" vertex="1" parent="1">
          <mxGeometry x="400" y="401" width="80" height="80" as="geometry" />
        </mxCell>
        <mxCell id="tuVfp5GaI5sKtkc8t0Ae-4" value="" style="endArrow=none;html=1;rounded=0;" edge="1" parent="1">
          <mxGeometry width="50" height="50" relative="1" as="geometry">
            <mxPoint x="439.5" y="370" as="sourcePoint" />
            <mxPoint x="439.5" y="300" as="targetPoint" />
          </mxGeometry>
        </mxCell>
        <mxCell id="tuVfp5GaI5sKtkc8t0Ae-5" value="10.10.0.40" style="text;html=1;align=center;verticalAlign=middle;whiteSpace=wrap;rounded=0;" vertex="1" parent="1">
          <mxGeometry x="122.5" y="170" width="60" height="30" as="geometry" />
        </mxCell>
        <mxCell id="tuVfp5GaI5sKtkc8t0Ae-7" value="10.50.20.84" style="text;html=1;align=center;verticalAlign=middle;whiteSpace=wrap;rounded=0;" vertex="1" parent="1">
          <mxGeometry x="410" y="380" width="60" height="30" as="geometry" />
        </mxCell>
        <mxCell id="tuVfp5GaI5sKtkc8t0Ae-8" value="" style="endArrow=none;html=1;rounded=0;" edge="1" parent="1">
          <mxGeometry width="50" height="50" relative="1" as="geometry">
            <mxPoint x="439.5" y="581" as="sourcePoint" />
            <mxPoint x="439.5" y="511" as="targetPoint" />
          </mxGeometry>
        </mxCell>
        <mxCell id="tuVfp5GaI5sKtkc8t0Ae-9" value="" style="shape=link;html=1;rounded=0;" edge="1" parent="1">
          <mxGeometry width="100" relative="1" as="geometry">
            <mxPoint x="195" y="596" as="sourcePoint" />
            <mxPoint x="685" y="596" as="targetPoint" />
          </mxGeometry>
        </mxCell>
        <mxCell id="tuVfp5GaI5sKtkc8t0Ae-10" value="&lt;div&gt;21,23,&lt;/div&gt;1918" style="ellipse;whiteSpace=wrap;html=1;aspect=fixed;" vertex="1" parent="1">
          <mxGeometry x="160" y="717" width="80" height="80" as="geometry" />
        </mxCell>
        <mxCell id="tuVfp5GaI5sKtkc8t0Ae-11" value="" style="endArrow=none;html=1;rounded=0;" edge="1" parent="1">
          <mxGeometry width="50" height="50" relative="1" as="geometry">
            <mxPoint x="199.5" y="686" as="sourcePoint" />
            <mxPoint x="199.5" y="616" as="targetPoint" />
          </mxGeometry>
        </mxCell>
        <mxCell id="tuVfp5GaI5sKtkc8t0Ae-12" value="10.1.1.11" style="text;html=1;align=center;verticalAlign=middle;whiteSpace=wrap;rounded=0;" vertex="1" parent="1">
          <mxGeometry x="170" y="696" width="60" height="30" as="geometry" />
        </mxCell>
        <mxCell id="tuVfp5GaI5sKtkc8t0Ae-34" value="21,791" style="ellipse;whiteSpace=wrap;html=1;aspect=fixed;" vertex="1" parent="1">
          <mxGeometry x="250" y="717" width="80" height="80" as="geometry" />
        </mxCell>
        <mxCell id="tuVfp5GaI5sKtkc8t0Ae-35" value="" style="endArrow=none;html=1;rounded=0;" edge="1" parent="1">
          <mxGeometry width="50" height="50" relative="1" as="geometry">
            <mxPoint x="289.5" y="686" as="sourcePoint" />
            <mxPoint x="289.5" y="616" as="targetPoint" />
          </mxGeometry>
        </mxCell>
        <mxCell id="tuVfp5GaI5sKtkc8t0Ae-36" value="10.1.1.25" style="text;html=1;align=center;verticalAlign=middle;whiteSpace=wrap;rounded=0;" vertex="1" parent="1">
          <mxGeometry x="260" y="696" width="60" height="30" as="geometry" />
        </mxCell>
        <mxCell id="tuVfp5GaI5sKtkc8t0Ae-37" value="21,23,80" style="ellipse;whiteSpace=wrap;html=1;aspect=fixed;" vertex="1" parent="1">
          <mxGeometry x="350" y="717" width="80" height="80" as="geometry" />
        </mxCell>
        <mxCell id="tuVfp5GaI5sKtkc8t0Ae-38" value="" style="endArrow=none;html=1;rounded=0;" edge="1" parent="1">
          <mxGeometry width="50" height="50" relative="1" as="geometry">
            <mxPoint x="389.5" y="686" as="sourcePoint" />
            <mxPoint x="389.5" y="616" as="targetPoint" />
          </mxGeometry>
        </mxCell>
        <mxCell id="tuVfp5GaI5sKtkc8t0Ae-39" value="10.1.1.33" style="text;html=1;align=center;verticalAlign=middle;whiteSpace=wrap;rounded=0;" vertex="1" parent="1">
          <mxGeometry x="360" y="696" width="60" height="30" as="geometry" />
        </mxCell>
        <mxCell id="tuVfp5GaI5sKtkc8t0Ae-40" value="" style="ellipse;whiteSpace=wrap;html=1;aspect=fixed;" vertex="1" parent="1">
          <mxGeometry x="447.5" y="717" width="80" height="80" as="geometry" />
        </mxCell>
        <mxCell id="tuVfp5GaI5sKtkc8t0Ae-41" value="" style="endArrow=none;html=1;rounded=0;" edge="1" parent="1">
          <mxGeometry width="50" height="50" relative="1" as="geometry">
            <mxPoint x="487" y="686" as="sourcePoint" />
            <mxPoint x="487" y="616" as="targetPoint" />
          </mxGeometry>
        </mxCell>
        <mxCell id="tuVfp5GaI5sKtkc8t0Ae-42" value="10.1.1.90" style="text;html=1;align=center;verticalAlign=middle;whiteSpace=wrap;rounded=0;" vertex="1" parent="1">
          <mxGeometry x="457.5" y="696" width="60" height="30" as="geometry" />
        </mxCell>
        <mxCell id="tuVfp5GaI5sKtkc8t0Ae-43" value="125" style="ellipse;whiteSpace=wrap;html=1;aspect=fixed;" vertex="1" parent="1">
          <mxGeometry x="540" y="717" width="80" height="80" as="geometry" />
        </mxCell>
        <mxCell id="tuVfp5GaI5sKtkc8t0Ae-44" value="" style="endArrow=none;html=1;rounded=0;" edge="1" parent="1">
          <mxGeometry width="50" height="50" relative="1" as="geometry">
            <mxPoint x="579.5" y="686" as="sourcePoint" />
            <mxPoint x="579.5" y="616" as="targetPoint" />
          </mxGeometry>
        </mxCell>
        <mxCell id="tuVfp5GaI5sKtkc8t0Ae-45" value="10.1.1.125" style="text;html=1;align=center;verticalAlign=middle;whiteSpace=wrap;rounded=0;" vertex="1" parent="1">
          <mxGeometry x="550" y="696" width="60" height="30" as="geometry" />
        </mxCell>
        <mxCell id="tuVfp5GaI5sKtkc8t0Ae-46" value="10.1.1.30" style="text;html=1;align=center;verticalAlign=middle;whiteSpace=wrap;rounded=0;" vertex="1" parent="1">
          <mxGeometry x="410" y="481" width="60" height="30" as="geometry" />
        </mxCell>
        <mxCell id="tuVfp5GaI5sKtkc8t0Ae-47" value="" style="ellipse;whiteSpace=wrap;html=1;aspect=fixed;" vertex="1" parent="1">
          <mxGeometry x="640" y="717" width="80" height="80" as="geometry" />
        </mxCell>
        <mxCell id="tuVfp5GaI5sKtkc8t0Ae-48" value="" style="endArrow=none;html=1;rounded=0;" edge="1" parent="1">
          <mxGeometry width="50" height="50" relative="1" as="geometry">
            <mxPoint x="679.5" y="686" as="sourcePoint" />
            <mxPoint x="679.5" y="616" as="targetPoint" />
          </mxGeometry>
        </mxCell>
        <mxCell id="tuVfp5GaI5sKtkc8t0Ae-49" value="10.1.1.126" style="text;html=1;align=center;verticalAlign=middle;whiteSpace=wrap;rounded=0;" vertex="1" parent="1">
          <mxGeometry x="650" y="696" width="60" height="30" as="geometry" />
        </mxCell>
        <mxCell id="tuVfp5GaI5sKtkc8t0Ae-57" value="" style="ellipse;whiteSpace=wrap;html=1;aspect=fixed;" vertex="1" parent="1">
          <mxGeometry x="350" y="926" width="80" height="80" as="geometry" />
        </mxCell>
        <mxCell id="tuVfp5GaI5sKtkc8t0Ae-58" value="1.1.1.1" style="text;html=1;align=center;verticalAlign=middle;whiteSpace=wrap;rounded=0;" vertex="1" parent="1">
          <mxGeometry x="360" y="797" width="60" height="30" as="geometry" />
        </mxCell>
        <mxCell id="tuVfp5GaI5sKtkc8t0Ae-59" value="1.1.1.2" style="text;html=1;align=center;verticalAlign=middle;whiteSpace=wrap;rounded=0;" vertex="1" parent="1">
          <mxGeometry x="360" y="896" width="60" height="30" as="geometry" />
        </mxCell>
        <mxCell id="tuVfp5GaI5sKtkc8t0Ae-60" value="" style="endArrow=none;html=1;rounded=0;" edge="1" parent="1">
          <mxGeometry width="50" height="50" relative="1" as="geometry">
            <mxPoint x="389.5" y="897" as="sourcePoint" />
            <mxPoint x="389.5" y="827" as="targetPoint" />
          </mxGeometry>
        </mxCell>
        <mxCell id="tuVfp5GaI5sKtkc8t0Ae-61" value="80,7777" style="ellipse;whiteSpace=wrap;html=1;aspect=fixed;" vertex="1" parent="1">
          <mxGeometry x="-110" y="404.5" width="80" height="80" as="geometry" />
        </mxCell>
        <mxCell id="tuVfp5GaI5sKtkc8t0Ae-62" value="" style="endArrow=none;html=1;rounded=0;" edge="1" parent="1">
          <mxGeometry width="50" height="50" relative="1" as="geometry">
            <mxPoint x="-70.5" y="375.5" as="sourcePoint" />
            <mxPoint x="-70.5" y="305.5" as="targetPoint" />
          </mxGeometry>
        </mxCell>
        <mxCell id="tuVfp5GaI5sKtkc8t0Ae-63" value="10.50.21.126/32" style="text;html=1;align=center;verticalAlign=middle;whiteSpace=wrap;rounded=0;" vertex="1" parent="1">
          <mxGeometry x="-100" y="374.5" width="60" height="30" as="geometry" />
        </mxCell>
        <mxCell id="tuVfp5GaI5sKtkc8t0Ae-64" value="use tcpdump -v to see what ripv2 is saying" style="text;html=1;align=center;verticalAlign=middle;whiteSpace=wrap;rounded=0;" vertex="1" parent="1">
          <mxGeometry x="735" y="736" width="90" height="30" as="geometry" />
        </mxCell>
        <mxCell id="tuVfp5GaI5sKtkc8t0Ae-66" value="" style="shape=link;html=1;rounded=0;" edge="1" parent="1">
          <mxGeometry width="100" relative="1" as="geometry">
            <mxPoint x="-90" y="280" as="sourcePoint" />
            <mxPoint x="450" y="280" as="targetPoint" />
          </mxGeometry>
        </mxCell>
        <mxCell id="tuVfp5GaI5sKtkc8t0Ae-67" value="" style="endArrow=none;html=1;rounded=0;" edge="1" parent="1">
          <mxGeometry width="50" height="50" relative="1" as="geometry">
            <mxPoint x="152" y="270" as="sourcePoint" />
            <mxPoint x="152" y="200" as="targetPoint" />
          </mxGeometry>
        </mxCell>
        <mxCell id="tuVfp5GaI5sKtkc8t0Ae-68" value="10.2.2.6/28" style="text;html=1;align=center;verticalAlign=middle;whiteSpace=wrap;rounded=0;" vertex="1" parent="1">
          <mxGeometry x="-100" y="485" width="60" height="30" as="geometry" />
        </mxCell>
        <mxCell id="tuVfp5GaI5sKtkc8t0Ae-69" value="" style="ellipse;whiteSpace=wrap;html=1;aspect=fixed;" vertex="1" parent="1">
          <mxGeometry x="-190" y="717" width="80" height="80" as="geometry" />
        </mxCell>
        <mxCell id="tuVfp5GaI5sKtkc8t0Ae-70" value="" style="endArrow=none;html=1;rounded=0;" edge="1" parent="1">
          <mxGeometry width="50" height="50" relative="1" as="geometry">
            <mxPoint x="-150.5" y="686" as="sourcePoint" />
            <mxPoint x="-150.5" y="616" as="targetPoint" />
          </mxGeometry>
        </mxCell>
        <mxCell id="tuVfp5GaI5sKtkc8t0Ae-71" value="10.2.2.4" style="text;html=1;align=center;verticalAlign=middle;whiteSpace=wrap;rounded=0;" vertex="1" parent="1">
          <mxGeometry x="-180" y="696" width="60" height="30" as="geometry" />
        </mxCell>
        <mxCell id="tuVfp5GaI5sKtkc8t0Ae-72" value="&lt;div&gt;23,80,&lt;/div&gt;&lt;div&gt;(2222)&lt;br&gt;&lt;/div&gt;" style="ellipse;whiteSpace=wrap;html=1;aspect=fixed;" vertex="1" parent="1">
          <mxGeometry x="-100" y="717" width="80" height="80" as="geometry" />
        </mxCell>
        <mxCell id="tuVfp5GaI5sKtkc8t0Ae-73" value="" style="endArrow=none;html=1;rounded=0;" edge="1" parent="1">
          <mxGeometry width="50" height="50" relative="1" as="geometry">
            <mxPoint x="-60.5" y="686" as="sourcePoint" />
            <mxPoint x="-60.5" y="616" as="targetPoint" />
          </mxGeometry>
        </mxCell>
        <mxCell id="tuVfp5GaI5sKtkc8t0Ae-74" value="10.2.2.7" style="text;html=1;align=center;verticalAlign=middle;whiteSpace=wrap;rounded=0;" vertex="1" parent="1">
          <mxGeometry x="-90" y="696" width="60" height="30" as="geometry" />
        </mxCell>
        <mxCell id="tuVfp5GaI5sKtkc8t0Ae-75" value="(9697)" style="ellipse;whiteSpace=wrap;html=1;aspect=fixed;" vertex="1" parent="1">
          <mxGeometry y="717" width="80" height="80" as="geometry" />
        </mxCell>
        <mxCell id="tuVfp5GaI5sKtkc8t0Ae-76" value="" style="endArrow=none;html=1;rounded=0;" edge="1" parent="1">
          <mxGeometry width="50" height="50" relative="1" as="geometry">
            <mxPoint x="39.5" y="686" as="sourcePoint" />
            <mxPoint x="39.5" y="616" as="targetPoint" />
          </mxGeometry>
        </mxCell>
        <mxCell id="tuVfp5GaI5sKtkc8t0Ae-77" value="10.2.2.14" style="text;html=1;align=center;verticalAlign=middle;whiteSpace=wrap;rounded=0;" vertex="1" parent="1">
          <mxGeometry x="10" y="696" width="60" height="30" as="geometry" />
        </mxCell>
        <mxCell id="tuVfp5GaI5sKtkc8t0Ae-78" value="" style="shape=link;html=1;rounded=0;" edge="1" parent="1">
          <mxGeometry width="100" relative="1" as="geometry">
            <mxPoint x="-160" y="590" as="sourcePoint" />
            <mxPoint x="50" y="590" as="targetPoint" />
          </mxGeometry>
        </mxCell>
        <mxCell id="tuVfp5GaI5sKtkc8t0Ae-79" value="" style="endArrow=none;html=1;rounded=0;" edge="1" parent="1">
          <mxGeometry width="50" height="50" relative="1" as="geometry">
            <mxPoint x="-70.5" y="580" as="sourcePoint" />
            <mxPoint x="-70.5" y="510" as="targetPoint" />
          </mxGeometry>
        </mxCell>
        <mxCell id="tuVfp5GaI5sKtkc8t0Ae-83" value="" style="curved=1;endArrow=classic;html=1;rounded=0;" edge="1" parent="1" source="tuVfp5GaI5sKtkc8t0Ae-1">
          <mxGeometry width="50" height="50" relative="1" as="geometry">
            <mxPoint x="170" y="210" as="sourcePoint" />
            <mxPoint x="-10" y="440" as="targetPoint" />
            <Array as="points">
              <mxPoint x="130" y="230" />
              <mxPoint x="130" y="450" />
            </Array>
          </mxGeometry>
        </mxCell>
        <mxCell id="tuVfp5GaI5sKtkc8t0Ae-84" value="51700" style="text;html=1;align=center;verticalAlign=middle;whiteSpace=wrap;rounded=0;" vertex="1" parent="1">
          <mxGeometry x="80" y="230" width="60" height="30" as="geometry" />
        </mxCell>
        <mxCell id="tuVfp5GaI5sKtkc8t0Ae-85" value="&lt;div&gt;net5_comrade17&lt;/div&gt;&lt;div&gt;H0ld 73h d00r?&lt;br&gt;&lt;/div&gt;" style="text;html=1;align=center;verticalAlign=middle;whiteSpace=wrap;rounded=0;" vertex="1" parent="1">
          <mxGeometry x="-90" y="827" width="60" height="30" as="geometry" />
        </mxCell>
        <mxCell id="tuVfp5GaI5sKtkc8t0Ae-86" value="21,301" style="ellipse;whiteSpace=wrap;html=1;aspect=fixed;" vertex="1" parent="1">
          <mxGeometry x="-490" y="1071" width="80" height="80" as="geometry" />
        </mxCell>
        <mxCell id="tuVfp5GaI5sKtkc8t0Ae-87" value="" style="endArrow=none;html=1;rounded=0;" edge="1" parent="1">
          <mxGeometry width="50" height="50" relative="1" as="geometry">
            <mxPoint x="-450.5" y="1040" as="sourcePoint" />
            <mxPoint x="-450.5" y="970" as="targetPoint" />
          </mxGeometry>
        </mxCell>
        <mxCell id="tuVfp5GaI5sKtkc8t0Ae-88" value="capstone -08&lt;br&gt;&lt;div&gt;10.10.10.140&lt;/div&gt;" style="text;html=1;align=center;verticalAlign=middle;whiteSpace=wrap;rounded=0;" vertex="1" parent="1">
          <mxGeometry x="-490.25" y="1041" width="80" height="30" as="geometry" />
        </mxCell>
        <mxCell id="tuVfp5GaI5sKtkc8t0Ae-89" value="80,404" style="ellipse;whiteSpace=wrap;html=1;aspect=fixed;" vertex="1" parent="1">
          <mxGeometry x="-163.75" y="1071" width="80" height="80" as="geometry" />
        </mxCell>
        <mxCell id="tuVfp5GaI5sKtkc8t0Ae-90" value="" style="endArrow=none;html=1;rounded=0;" edge="1" parent="1">
          <mxGeometry width="50" height="50" relative="1" as="geometry">
            <mxPoint x="-124.25" y="1040" as="sourcePoint" />
            <mxPoint x="-124.25" y="970" as="targetPoint" />
          </mxGeometry>
        </mxCell>
        <mxCell id="tuVfp5GaI5sKtkc8t0Ae-91" value="10.10.10.167" style="text;html=1;align=center;verticalAlign=middle;whiteSpace=wrap;rounded=0;" vertex="1" parent="1">
          <mxGeometry x="-153.75" y="1050" width="60" height="30" as="geometry" />
        </mxCell>
        <mxCell id="tuVfp5GaI5sKtkc8t0Ae-92" value="" style="ellipse;whiteSpace=wrap;html=1;aspect=fixed;" vertex="1" parent="1">
          <mxGeometry x="-63.75" y="1071" width="80" height="80" as="geometry" />
        </mxCell>
        <mxCell id="tuVfp5GaI5sKtkc8t0Ae-93" value="" style="endArrow=none;html=1;rounded=0;" edge="1" parent="1">
          <mxGeometry width="50" height="50" relative="1" as="geometry">
            <mxPoint x="-24.25" y="1040" as="sourcePoint" />
            <mxPoint x="-24.25" y="970" as="targetPoint" />
          </mxGeometry>
        </mxCell>
        <mxCell id="tuVfp5GaI5sKtkc8t0Ae-94" value="10.10.10.181" style="text;html=1;align=center;verticalAlign=middle;whiteSpace=wrap;rounded=0;" vertex="1" parent="1">
          <mxGeometry x="-53.75" y="1050" width="60" height="30" as="geometry" />
        </mxCell>
        <mxCell id="tuVfp5GaI5sKtkc8t0Ae-95" value="21" style="ellipse;whiteSpace=wrap;html=1;aspect=fixed;" vertex="1" parent="1">
          <mxGeometry x="33.75" y="1071" width="80" height="80" as="geometry" />
        </mxCell>
        <mxCell id="tuVfp5GaI5sKtkc8t0Ae-96" value="" style="endArrow=none;html=1;rounded=0;" edge="1" parent="1">
          <mxGeometry width="50" height="50" relative="1" as="geometry">
            <mxPoint x="73.25" y="1040" as="sourcePoint" />
            <mxPoint x="73.25" y="970" as="targetPoint" />
          </mxGeometry>
        </mxCell>
        <mxCell id="tuVfp5GaI5sKtkc8t0Ae-97" value="10.10.10.182" style="text;html=1;align=center;verticalAlign=middle;whiteSpace=wrap;rounded=0;" vertex="1" parent="1">
          <mxGeometry x="43.75" y="1050" width="60" height="30" as="geometry" />
        </mxCell>
        <mxCell id="tuVfp5GaI5sKtkc8t0Ae-98" value="" style="shape=link;html=1;rounded=0;" edge="1" parent="1">
          <mxGeometry width="100" relative="1" as="geometry">
            <mxPoint x="-500" y="925" as="sourcePoint" />
            <mxPoint x="100" y="925" as="targetPoint" />
          </mxGeometry>
        </mxCell>
        <mxCell id="tuVfp5GaI5sKtkc8t0Ae-99" value="" style="endArrow=none;html=1;rounded=0;" edge="1" parent="1">
          <mxGeometry width="50" height="50" relative="1" as="geometry">
            <mxPoint x="-64.25" y="915" as="sourcePoint" />
            <mxPoint x="-64.25" y="845" as="targetPoint" />
          </mxGeometry>
        </mxCell>
        <mxCell id="tuVfp5GaI5sKtkc8t0Ae-100" value="10.10.10.129" style="text;html=1;align=center;verticalAlign=middle;whiteSpace=wrap;rounded=0;" vertex="1" parent="1">
          <mxGeometry x="-90" y="797" width="60" height="30" as="geometry" />
        </mxCell>
        <mxCell id="tuVfp5GaI5sKtkc8t0Ae-101" value="" style="ellipse;whiteSpace=wrap;html=1;aspect=fixed;" vertex="1" parent="1">
          <mxGeometry x="-570" y="1426" width="80" height="80" as="geometry" />
        </mxCell>
        <mxCell id="tuVfp5GaI5sKtkc8t0Ae-102" value="" style="endArrow=none;html=1;rounded=0;" edge="1" parent="1">
          <mxGeometry width="50" height="50" relative="1" as="geometry">
            <mxPoint x="-530.5" y="1395" as="sourcePoint" />
            <mxPoint x="-530.5" y="1325" as="targetPoint" />
          </mxGeometry>
        </mxCell>
        <mxCell id="tuVfp5GaI5sKtkc8t0Ae-103" value="192.168.10.35" style="text;html=1;align=center;verticalAlign=middle;whiteSpace=wrap;rounded=0;" vertex="1" parent="1">
          <mxGeometry x="-560" y="1405" width="60" height="30" as="geometry" />
        </mxCell>
        <mxCell id="tuVfp5GaI5sKtkc8t0Ae-104" value="21" style="ellipse;whiteSpace=wrap;html=1;aspect=fixed;" vertex="1" parent="1">
          <mxGeometry x="-480" y="1426" width="80" height="80" as="geometry" />
        </mxCell>
        <mxCell id="tuVfp5GaI5sKtkc8t0Ae-105" value="" style="endArrow=none;html=1;rounded=0;" edge="1" parent="1">
          <mxGeometry width="50" height="50" relative="1" as="geometry">
            <mxPoint x="-440.5" y="1395" as="sourcePoint" />
            <mxPoint x="-440.5" y="1325" as="targetPoint" />
          </mxGeometry>
        </mxCell>
        <mxCell id="tuVfp5GaI5sKtkc8t0Ae-106" value="192.168.10.39" style="text;html=1;align=center;verticalAlign=middle;whiteSpace=wrap;rounded=0;" vertex="1" parent="1">
          <mxGeometry x="-470" y="1405" width="60" height="30" as="geometry" />
        </mxCell>
        <mxCell id="tuVfp5GaI5sKtkc8t0Ae-107" value="" style="ellipse;whiteSpace=wrap;html=1;aspect=fixed;" vertex="1" parent="1">
          <mxGeometry x="-380" y="1426" width="80" height="80" as="geometry" />
        </mxCell>
        <mxCell id="tuVfp5GaI5sKtkc8t0Ae-108" value="" style="endArrow=none;html=1;rounded=0;" edge="1" parent="1">
          <mxGeometry width="50" height="50" relative="1" as="geometry">
            <mxPoint x="-340.5" y="1395" as="sourcePoint" />
            <mxPoint x="-340.5" y="1325" as="targetPoint" />
          </mxGeometry>
        </mxCell>
        <mxCell id="tuVfp5GaI5sKtkc8t0Ae-109" value="192.168.10.62" style="text;html=1;align=center;verticalAlign=middle;whiteSpace=wrap;rounded=0;" vertex="1" parent="1">
          <mxGeometry x="-370" y="1405" width="60" height="30" as="geometry" />
        </mxCell>
        <mxCell id="tuVfp5GaI5sKtkc8t0Ae-113" value="" style="shape=link;html=1;rounded=0;" edge="1" parent="1">
          <mxGeometry width="100" relative="1" as="geometry">
            <mxPoint x="-486.25" y="1280" as="sourcePoint" />
            <mxPoint x="-256.25" y="1280" as="targetPoint" />
          </mxGeometry>
        </mxCell>
        <mxCell id="tuVfp5GaI5sKtkc8t0Ae-114" value="" style="endArrow=none;html=1;rounded=0;" edge="1" parent="1">
          <mxGeometry width="50" height="50" relative="1" as="geometry">
            <mxPoint x="-453.75" y="1260" as="sourcePoint" />
            <mxPoint x="-453.75" y="1190" as="targetPoint" />
          </mxGeometry>
        </mxCell>
        <mxCell id="tuVfp5GaI5sKtkc8t0Ae-115" value="192.168.10.44" style="text;html=1;align=center;verticalAlign=middle;whiteSpace=wrap;rounded=0;" vertex="1" parent="1">
          <mxGeometry x="-480.25" y="1151" width="60" height="30" as="geometry" />
        </mxCell>
        <mxCell id="tuVfp5GaI5sKtkc8t0Ae-116" value="" style="endArrow=classic;html=1;rounded=0;" edge="1" parent="1">
          <mxGeometry width="50" height="50" relative="1" as="geometry">
            <mxPoint x="-41" y="696" as="sourcePoint" />
            <mxPoint x="-41" y="506" as="targetPoint" />
          </mxGeometry>
        </mxCell>
        <mxCell id="tuVfp5GaI5sKtkc8t0Ae-117" value="51799" style="text;html=1;align=center;verticalAlign=middle;whiteSpace=wrap;rounded=0;" vertex="1" parent="1">
          <mxGeometry x="-70" y="535" width="60" height="30" as="geometry" />
        </mxCell>
        <mxCell id="tuVfp5GaI5sKtkc8t0Ae-118" value="" style="endArrow=classic;html=1;rounded=0;" edge="1" parent="1">
          <mxGeometry width="50" height="50" relative="1" as="geometry">
            <mxPoint x="-93.75" y="500" as="sourcePoint" />
            <mxPoint x="-93.75" y="680" as="targetPoint" />
          </mxGeometry>
        </mxCell>
        <mxCell id="tuVfp5GaI5sKtkc8t0Ae-119" value="51701" style="text;html=1;align=center;verticalAlign=middle;whiteSpace=wrap;rounded=0;" vertex="1" parent="1">
          <mxGeometry x="-130" y="530" width="60" height="30" as="geometry" />
        </mxCell>
        <mxCell id="tuVfp5GaI5sKtkc8t0Ae-120" value="" style="endArrow=classic;html=1;rounded=0;" edge="1" parent="1">
          <mxGeometry width="50" height="50" relative="1" as="geometry">
            <mxPoint x="-110" y="800" as="sourcePoint" />
            <mxPoint x="-160" y="1040" as="targetPoint" />
          </mxGeometry>
        </mxCell>
        <mxCell id="tuVfp5GaI5sKtkc8t0Ae-121" value="" style="endArrow=classic;html=1;rounded=0;" edge="1" parent="1">
          <mxGeometry width="50" height="50" relative="1" as="geometry">
            <mxPoint x="-153.75" y="840" as="sourcePoint" />
            <mxPoint x="-400" y="1080" as="targetPoint" />
          </mxGeometry>
        </mxCell>
        <mxCell id="tuVfp5GaI5sKtkc8t0Ae-122" value="51702" style="text;html=1;align=center;verticalAlign=middle;whiteSpace=wrap;rounded=0;" vertex="1" parent="1">
          <mxGeometry x="-240" y="880" width="60" height="30" as="geometry" />
        </mxCell>
        <mxCell id="tuVfp5GaI5sKtkc8t0Ae-123" value="51703" style="text;html=1;align=center;verticalAlign=middle;whiteSpace=wrap;rounded=0;" vertex="1" parent="1">
          <mxGeometry x="-164" y="890" width="60" height="30" as="geometry" />
        </mxCell>
        <mxCell id="tuVfp5GaI5sKtkc8t0Ae-124" value="" style="ellipse;whiteSpace=wrap;html=1;aspect=fixed;" vertex="1" parent="1">
          <mxGeometry x="-236.25" y="1426" width="80" height="80" as="geometry" />
        </mxCell>
        <mxCell id="tuVfp5GaI5sKtkc8t0Ae-125" value="" style="endArrow=none;html=1;rounded=0;" edge="1" parent="1">
          <mxGeometry width="50" height="50" relative="1" as="geometry">
            <mxPoint x="-196.75" y="1395" as="sourcePoint" />
            <mxPoint x="-196.75" y="1325" as="targetPoint" />
          </mxGeometry>
        </mxCell>
        <mxCell id="tuVfp5GaI5sKtkc8t0Ae-126" value="192.168.10.74" style="text;html=1;align=center;verticalAlign=middle;whiteSpace=wrap;rounded=0;" vertex="1" parent="1">
          <mxGeometry x="-226.25" y="1405" width="60" height="30" as="geometry" />
        </mxCell>
        <mxCell id="tuVfp5GaI5sKtkc8t0Ae-127" value="21" style="ellipse;whiteSpace=wrap;html=1;aspect=fixed;" vertex="1" parent="1">
          <mxGeometry x="-146.25" y="1426" width="80" height="80" as="geometry" />
        </mxCell>
        <mxCell id="tuVfp5GaI5sKtkc8t0Ae-128" value="" style="endArrow=none;html=1;rounded=0;" edge="1" parent="1">
          <mxGeometry width="50" height="50" relative="1" as="geometry">
            <mxPoint x="-106.75" y="1395" as="sourcePoint" />
            <mxPoint x="-106.75" y="1325" as="targetPoint" />
          </mxGeometry>
        </mxCell>
        <mxCell id="tuVfp5GaI5sKtkc8t0Ae-129" value="192.168.10.80" style="text;html=1;align=center;verticalAlign=middle;whiteSpace=wrap;rounded=0;" vertex="1" parent="1">
          <mxGeometry x="-136.25" y="1405" width="60" height="30" as="geometry" />
        </mxCell>
        <mxCell id="tuVfp5GaI5sKtkc8t0Ae-130" value="" style="ellipse;whiteSpace=wrap;html=1;aspect=fixed;" vertex="1" parent="1">
          <mxGeometry x="-46.25" y="1426" width="80" height="80" as="geometry" />
        </mxCell>
        <mxCell id="tuVfp5GaI5sKtkc8t0Ae-131" value="" style="endArrow=none;html=1;rounded=0;" edge="1" parent="1">
          <mxGeometry width="50" height="50" relative="1" as="geometry">
            <mxPoint x="-6.75" y="1395" as="sourcePoint" />
            <mxPoint x="-6.75" y="1325" as="targetPoint" />
          </mxGeometry>
        </mxCell>
        <mxCell id="tuVfp5GaI5sKtkc8t0Ae-132" value="192.168.10.94" style="text;html=1;align=center;verticalAlign=middle;whiteSpace=wrap;rounded=0;" vertex="1" parent="1">
          <mxGeometry x="-36.25" y="1405" width="60" height="30" as="geometry" />
        </mxCell>
        <mxCell id="tuVfp5GaI5sKtkc8t0Ae-133" value="" style="shape=link;html=1;rounded=0;" edge="1" parent="1">
          <mxGeometry width="100" relative="1" as="geometry">
            <mxPoint x="-212.5" y="1280" as="sourcePoint" />
            <mxPoint x="17.5" y="1280" as="targetPoint" />
          </mxGeometry>
        </mxCell>
        <mxCell id="tuVfp5GaI5sKtkc8t0Ae-134" value="" style="endArrow=none;html=1;rounded=0;" edge="1" parent="1">
          <mxGeometry width="50" height="50" relative="1" as="geometry">
            <mxPoint x="-120" y="1260" as="sourcePoint" />
            <mxPoint x="-120" y="1190" as="targetPoint" />
          </mxGeometry>
        </mxCell>
        <mxCell id="tuVfp5GaI5sKtkc8t0Ae-135" value="192.168.10.70" style="text;html=1;align=center;verticalAlign=middle;whiteSpace=wrap;rounded=0;" vertex="1" parent="1">
          <mxGeometry x="-150" y="1160" width="60" height="30" as="geometry" />
        </mxCell>
      </root>
    </mxGraphModel>
  </diagram>
</mxfile>
